<svg width="24" height="24" viewBox="0 0 24 24" fill="white" xmlns="http://www.w3.org/2000/svg">
<path d="M12.0057 24C18.5861 24 24 18.5975 24 12.0057C24 5.41387 18.5861 0 11.9943 0C5.40255 0 0 5.41387 0 12.0057C0 18.5975 5.41387 24 12.0057 24ZM11.9943 17.6008C11.1902 17.6008 10.6465 17.0231 10.6465 16.2303V13.3648H7.61114C6.80698 13.3648 6.21803 12.8098 6.21803 12.017C6.21803 11.2128 6.79566 10.6692 7.61114 10.6692H10.6465V7.67909C10.6465 6.88627 11.1902 6.30864 11.9943 6.30864C12.7872 6.30864 13.3421 6.87494 13.3421 7.67909V10.6692H16.3889C17.2043 10.6692 17.7706 11.2128 17.7706 12.017C17.7706 12.8098 17.193 13.3648 16.3889 13.3648H13.3421V16.2303C13.3421 17.0345 12.7872 17.6008 11.9943 17.6008Z" />
</svg>
