<svg width="64" height="64" viewBox="0 0 64 64" fill="none" xmlns="http://www.w3.org/2000/svg">
<rect x="1" y="1" width="62" height="62" rx="15" stroke="#7831fb" stroke-width="2"/>
<path d="M32.0057 44C38.5861 44 44 38.5975 44 32.0057C44 25.4139 38.5861 20 31.9943 20C25.4025 20 20 25.4139 20 32.0057C20 38.5975 25.4139 44 32.0057 44ZM31.9943 37.6008C31.1902 37.6008 30.6465 37.0231 30.6465 36.2303V33.3648H27.6111C26.807 33.3648 26.218 32.8098 26.218 32.017C26.218 31.2128 26.7957 30.6692 27.6111 30.6692H30.6465V27.6791C30.6465 26.8863 31.1902 26.3086 31.9943 26.3086C32.7872 26.3086 33.3421 26.8749 33.3421 27.6791V30.6692H36.3889C37.2043 30.6692 37.7706 31.2128 37.7706 32.017C37.7706 32.8098 37.193 33.3648 36.3889 33.3648H33.3421V36.2303C33.3421 37.0345 32.7872 37.6008 31.9943 37.6008Z" fill="#7831fb"/>
</svg>
