<svg width="24" height="21" viewBox="0 0 24 21" fill="none" xmlns="http://www.w3.org/2000/svg">
<path d="M20.5224 20.3895C22.8371 20.3895 24 19.2487 24 16.9562V3.43332C24 1.14075 22.8371 0 20.5224 0H10.898C9.60221 0 8.48362 0.332257 7.57545 1.2958L1.05215 8.07384C0.332257 8.81588 0 9.48039 0 10.1781C0 10.8648 0.321181 11.5404 1.05215 12.2824L7.58652 19.0272C8.50577 19.9797 9.61329 20.3784 10.9091 20.3784L20.5224 20.3895ZM17.9419 15.0955C17.6761 15.0955 17.4435 14.9958 17.2552 14.8186L14.0212 11.5625L10.7762 14.8186C10.5879 14.9958 10.3553 15.0955 10.0895 15.0955C9.54684 15.0955 9.09275 14.6525 9.09275 14.1098C9.09275 13.8551 9.20351 13.6114 9.39179 13.4121L12.6147 10.1781L9.39179 6.95524C9.20351 6.75588 9.09275 6.51223 9.09275 6.2575C9.09275 5.70374 9.54684 5.24965 10.0895 5.24965C10.3443 5.24965 10.5879 5.34933 10.7873 5.54869L14.0212 8.78265L17.2441 5.54869C17.4435 5.34933 17.6871 5.24965 17.9419 5.24965C18.4956 5.24965 18.9386 5.70374 18.9386 6.2575C18.9386 6.51223 18.8389 6.75588 18.6396 6.95524L15.4167 10.1781L18.6396 13.4121C18.8389 13.6114 18.9386 13.8551 18.9386 14.1098C18.9386 14.6525 18.4845 15.0955 17.9419 15.0955Z" fill="#4E00F2"/>
</svg>
