<svg width="27" height="27" viewBox="0 0 27 27" fill="none" xmlns="http://www.w3.org/2000/svg">
<path fill-rule="evenodd" clip-rule="evenodd" d="M0 13.3333C0 5.96954 5.96954 0 13.3333 0C20.6971 0 26.6667 5.96954 26.6667 13.3333C26.6667 20.6971 20.6971 26.6667 13.3333 26.6667C5.96954 26.6667 0 20.6971 0 13.3333ZM10.2761 8.39052C9.75544 7.86983 8.91122 7.86983 8.39052 8.39052C7.86983 8.91122 7.86983 9.75544 8.39052 10.2761L11.4477 13.3333L8.39052 16.3905C7.86983 16.9112 7.86983 17.7554 8.39052 18.2761C8.91122 18.7968 9.75544 18.7968 10.2761 18.2761L13.3333 15.219L16.3905 18.2761C16.9112 18.7968 17.7554 18.7968 18.2761 18.2761C18.7968 17.7554 18.7968 16.9112 18.2761 16.3905L15.219 13.3333L18.2761 10.2761C18.7968 9.75544 18.7968 8.91122 18.2761 8.39052C17.7554 7.86983 16.9112 7.86983 16.3905 8.39052L13.3333 11.4477L10.2761 8.39052Z" fill="#4D4765"/>
</svg>
