<svg width="24" height="24" viewBox="0 0 24 24" fill="none" xmlns="http://www.w3.org/2000/svg">
<path d="M11 11.84C11 10.4959 11 9.82381 11.2657 9.31042C11.4994 8.85883 11.8723 8.49168 12.3309 8.26158C12.8523 8 13.5349 8 14.9 8H19.673C20.0705 8 20.2692 8 20.4563 8.04421C20.6221 8.0834 20.7806 8.14805 20.926 8.23578C21.09 8.33472 21.2305 8.47308 21.5115 8.74981L23.2385 10.4502C23.5195 10.7269 23.66 10.8653 23.7605 11.0267C23.8496 11.1699 23.9153 11.326 23.9551 11.4892C24 11.6734 24 11.869 24 12.2604V20.16C24 21.5041 24 22.1762 23.7343 22.6896C23.5006 23.1412 23.1277 23.5083 22.6691 23.7384C22.1477 24 21.4651 24 20.1 24H14.9C13.5349 24 12.8523 24 12.3309 23.7384C11.8723 23.5083 11.4994 23.1412 11.2657 22.6896C11 22.1762 11 21.5041 11 20.16V11.84Z" fill="#7000FF"/>
<path d="M19 9.17851C19 8.52764 19.5276 8 20.1785 8V8C20.4911 8 20.7908 8.12416 21.0118 8.34518L23.6548 10.9882C23.8758 11.2092 24 11.5089 24 11.8215V11.8215C24 12.4724 23.4724 13 22.8215 13H20.6667C19.7462 13 19 12.2538 19 11.3333V9.17851Z" fill="#D5B5FF"/>
<path d="M0 4.8C0 3.11984 0 2.27976 0.32698 1.63803C0.614601 1.07354 1.07354 0.614601 1.63803 0.32698C2.27976 0 3.11984 0 4.8 0H10.6745C11.1637 0 11.4083 0 11.6385 0.0552602C11.8425 0.104254 12.0376 0.185062 12.2166 0.29472C12.4184 0.418403 12.5914 0.591355 12.9373 0.937258L15.0627 3.06274C15.4086 3.40865 15.5816 3.5816 15.7053 3.78343C15.8149 3.96237 15.8957 4.15746 15.9447 4.36154C16 4.59171 16 4.8363 16 5.32548V15.2C16 16.8802 16 17.7202 15.673 18.362C15.3854 18.9265 14.9265 19.3854 14.362 19.673C13.7202 20 12.8802 20 11.2 20H4.8C3.11984 20 2.27976 20 1.63803 19.673C1.07354 19.3854 0.614601 18.9265 0.32698 18.362C0 17.7202 0 16.8802 0 15.2V4.8Z" fill="#D5B5FF"/>
<path d="M10 1.41421C10 0.633165 10.6332 0 11.4142 0V0C11.7893 0 12.149 0.148997 12.4142 0.414214L15.5858 3.58579C15.851 3.851 16 4.21071 16 4.58579V4.58579C16 5.36683 15.3668 6 14.5858 6H12C10.8954 6 10 5.10457 10 4V1.41421Z" fill="#7000FF"/>
</svg>
