<svg width="24" height="24" viewBox="0 0 24 24" fill="none" xmlns="http://www.w3.org/2000/svg">
<path d="M9.49553 13.2209C9.49553 12.5326 9.06438 12.0974 8.38573 12.0974C8.05838 12.0974 7.81885 12.2082 7.62723 12.3664L3.89863 15.5234C3.39563 15.9506 3.4116 16.6627 3.89863 17.082L7.62723 20.2231C7.81885 20.3893 8.05838 20.5001 8.38573 20.5001C9.06438 20.5001 9.49553 20.0649 9.49553 19.3686V17.9049H15.2521C18.845 17.9049 21.0007 16.1089 21.0007 13.126V12.1845C21.0007 11.3379 20.2981 10.6416 19.4438 10.6416C18.5895 10.6416 17.9028 11.3379 17.9028 12.1845V12.6434C17.9028 14.0834 16.9607 14.9141 15.3559 14.9141H9.49553V13.2209Z" fill="white"/>
<path d="M4.54893 12.3822C3.70261 12.3822 3 11.6938 3 10.8473V9.8978C3 6.91494 5.15572 5.1189 8.74061 5.1189H14.5052V3.62352C14.5052 2.93516 14.9363 2.5 15.615 2.5C15.9423 2.5 16.1739 2.61077 16.3735 2.76901L20.0941 5.91802C20.5891 6.32945 20.5971 7.04154 20.0941 7.46879L16.3735 10.6257C16.1739 10.7919 15.9423 10.9026 15.615 10.9026C14.9363 10.9026 14.5052 10.4596 14.5052 9.77121V8.11758H8.6448C7.032 8.11758 6.09785 8.94044 6.09785 10.3804V10.8473C6.09785 11.6938 5.40323 12.3822 4.54893 12.3822Z" fill="white" fill-opacity="0.4"/>
</svg>
