<svg width="16" height="19" viewBox="0 0 16 19" fill="none" xmlns="http://www.w3.org/2000/svg">
<path d="M4.56919 19H11.4308C12.7061 19 13.4337 18.3134 13.4963 16.9484L13.9971 5.20009H15.0924C15.6166 5.20009 16 4.79815 16 4.24548C16 3.70119 15.6166 3.30762 15.0924 3.30762H11.7985V2.38651C11.7985 0.946232 10.8362 0 9.27922 0H6.72078C5.16381 0 4.20147 0.946232 4.20147 2.38651V3.30762H0.907579C0.391198 3.30762 0 3.70119 0 4.24548C0 4.79815 0.391198 5.20009 0.907579 5.20009H2.01076L2.51149 16.9484C2.57408 18.3134 3.30171 19 4.56919 19ZM6.05575 3.30762L6.06357 2.44513C6.07139 2.0097 6.37653 1.70824 6.81467 1.70824H9.19315C9.6313 1.70824 9.93643 2.0097 9.94425 2.44513L9.95208 3.30762H6.05575ZM4.69438 15.8431L4.41271 6.97532C4.40489 6.57338 4.66308 6.26355 4.99169 6.26355C5.32029 6.26355 5.59413 6.58175 5.60978 6.97532L5.87579 15.8347C5.88362 16.2367 5.62543 16.5549 5.289 16.5549C4.95257 16.5549 4.7022 16.2618 4.69438 15.8431ZM7.40147 15.8515V6.96695C7.40147 6.58175 7.68313 6.26355 8.00391 6.26355C8.32469 6.26355 8.60636 6.58175 8.60636 6.96695V15.8515C8.60636 16.2367 8.32469 16.5549 8.00391 16.5549C7.68313 16.5549 7.40147 16.2367 7.40147 15.8515ZM10.132 15.8347L10.398 6.97532C10.4137 6.58175 10.6797 6.26355 11.0083 6.26355C11.3447 6.26355 11.6029 6.57338 11.5951 6.97532L11.3134 15.8431C11.2978 16.2618 11.0553 16.5549 10.7267 16.5549C10.3746 16.5549 10.1242 16.2367 10.132 15.8347Z" fill="#FF2B2B"/>
</svg>
