<svg width="24" height="24" viewBox="0 0 24 24" fill="none" xmlns="http://www.w3.org/2000/svg">
<path d="M12 24C18.5647 24 24 18.5647 24 12C24 5.44706 18.5529 0 11.9882 0C5.43529 0 0 5.44706 0 12C0 18.5647 5.44706 24 12 24ZM8.85882 19.1529C8.03529 19.1529 7.55294 18.6941 7.51765 17.8706L7.10588 8.28235H6.10588C5.82353 8.28235 5.6 8.05882 5.6 7.77647C5.6 7.48235 5.82353 7.24706 6.10588 7.24706H9.02353V6.27059C9.02353 5.27059 9.69412 4.62353 10.7529 4.62353H13.2C14.2706 4.62353 14.9412 5.27059 14.9412 6.27059V7.24706H17.8353C18.1294 7.24706 18.3765 7.48235 18.3647 7.77647C18.3529 8.05882 18.1294 8.28235 17.8353 8.28235H16.8824L16.4706 17.8706C16.4471 18.6941 15.9294 19.1529 15.1294 19.1529H8.85882ZM10.2588 7.24706H13.6824V6.34118C13.6824 6.02353 13.4588 5.81177 13.1294 5.81177H10.8118C10.4824 5.81177 10.2588 6.02353 10.2588 6.34118V7.24706ZM9.90588 17.2706C10.1647 17.2706 10.3294 17.0941 10.3176 16.8588L10.0824 9.77647C10.0824 9.51765 9.90588 9.35294 9.65882 9.35294C9.36471 9.35294 9.21177 9.51765 9.21177 9.77647L9.45882 16.8588C9.45882 17.0941 9.64706 17.2706 9.90588 17.2706ZM11.9647 17.2706C12.2353 17.2706 12.4235 17.0941 12.4235 16.8588V9.77647C12.4235 9.51765 12.2471 9.35294 11.9647 9.35294C11.6941 9.35294 11.5294 9.51765 11.5294 9.77647V16.8588C11.5294 17.0941 11.6941 17.2706 11.9647 17.2706ZM14.0353 17.2706C14.2824 17.2706 14.4824 17.0941 14.4824 16.8588L14.7176 9.77647C14.7294 9.51765 14.5647 9.35294 14.2941 9.35294C14.0235 9.35294 13.8471 9.51765 13.8471 9.77647L13.6118 16.8588C13.6118 17.0941 13.7647 17.2706 14.0353 17.2706Z" fill="#FF2B2B"/>
</svg>
