<svg width="24" height="24" viewBox="0 0 24 24" fill="none" xmlns="http://www.w3.org/2000/svg">
<path d="M3.5 17.9817V10.5444C3.5 8.42869 3.5 7.37081 3.91175 6.5627C4.27394 5.85187 4.85187 5.27394 5.5627 4.91175C6.37081 4.5 7.42869 4.5 9.54444 4.5H14.4556C16.5713 4.5 17.6292 4.5 18.4373 4.91175C19.1481 5.27394 19.7261 5.85187 20.0882 6.5627C20.5 7.37081 20.5 8.42869 20.5 10.5444V11.6778C20.5 13.7935 20.5 14.8514 20.0882 15.6595C19.7261 16.3704 19.1481 16.9483 18.4373 17.3105C17.6292 17.7222 16.5713 17.7222 14.4556 17.7222H10.4503C9.97694 17.7222 9.74024 17.7222 9.51814 17.7768C9.32125 17.8252 9.13344 17.905 8.96191 18.0131C8.76841 18.135 8.60407 18.3053 8.27538 18.646L7.39788 19.5555C6.17948 20.8183 5.57028 21.4497 5.0455 21.4976C4.59034 21.5392 4.14308 21.3586 3.84438 21.0127C3.5 20.6138 3.5 19.7364 3.5 17.9817Z" fill="white" fill-opacity="0.4"/>
<path fill-rule="evenodd" clip-rule="evenodd" d="M8.22233 12.5282C9.00473 12.5282 9.639 11.8939 9.639 11.1115C9.639 10.3291 9.00473 9.69482 8.22233 9.69482C7.43993 9.69482 6.80566 10.3291 6.80566 11.1115C6.80566 11.8939 7.43993 12.5282 8.22233 12.5282ZM15.778 12.5282C16.5604 12.5282 17.1947 11.8939 17.1947 11.1115C17.1947 10.3291 16.5604 9.69482 15.778 9.69482C14.9956 9.69482 14.3613 10.3291 14.3613 11.1115C14.3613 11.8939 14.9956 12.5282 15.778 12.5282ZM13.4173 11.1115C13.4173 11.8939 12.7831 12.5282 12.0007 12.5282C11.2182 12.5282 10.584 11.8939 10.584 11.1115C10.584 10.3291 11.2182 9.69482 12.0007 9.69482C12.7831 9.69482 13.4173 10.3291 13.4173 11.1115Z" fill="white"/>
</svg>
