<svg width="24" height="24" viewBox="0 0 24 24" fill="none" xmlns="http://www.w3.org/2000/svg">
<rect x="4" y="6" width="16" height="11" fill="white"/>
<path d="M15.3736 1C21.5336 1 23 2.46638 23 8.62638V15.3736C23 21.5336 21.5336 23 15.3736 23H8.62638C2.46638 23 1 21.5336 1 15.3736V8.62638C1 2.46638 2.46638 1 8.62638 1H15.3736V1ZM6.72846 7.875H5.125C4.66638 7.875 4.575 8.09077 4.575 8.32854C4.575 8.75331 5.11908 10.8611 7.10754 13.6483C8.43262 15.5522 10.3009 16.5836 12 16.5836C13.0196 16.5836 13.1457 16.3543 13.1457 15.9592V14.5207C13.1457 14.0629 13.2422 13.9707 13.5654 13.9707C13.8032 13.9707 14.211 14.09 15.1629 15.0081C16.2502 16.0954 16.4296 16.5836 17.0414 16.5836H18.6457C19.1043 16.5836 19.3336 16.3543 19.2016 15.9016C19.0569 15.4515 18.5374 14.7974 17.8478 14.0223C17.4738 13.5798 16.9136 13.1042 16.7435 12.8665C16.5058 12.5602 16.5735 12.4248 16.7435 12.1523L16.7723 12.1125C17.0135 11.7682 18.7125 9.33292 18.9021 8.46477C19.0036 8.12462 18.9021 7.875 18.4164 7.875H16.8129C16.4051 7.875 16.2164 8.09077 16.1148 8.32854C16.1148 8.32854 15.2992 10.317 14.1433 11.6091C13.7693 11.9822 13.5992 12.1015 13.3953 12.1015C13.2938 12.1015 13.1457 11.9831 13.1457 11.6429V8.46477C13.1457 8.05692 13.0272 7.875 12.6879 7.875H10.1664C9.91254 7.875 9.75854 8.06454 9.75854 8.24392C9.75854 8.63062 10.3365 8.71946 10.3957 9.80762V12.1692C10.3957 12.6879 10.3026 12.7818 10.0987 12.7818C9.55462 12.7818 8.23208 10.7841 7.44685 8.49862C7.29369 8.05439 7.13885 7.875 6.72931 7.875H6.72846Z" fill="#4585ED"/>
</svg>
