<svg width="204" height="25" viewBox="0 0 204 25" fill="none" xmlns="http://www.w3.org/2000/svg">
<path d="M141.479 20.0342C143.382 20.0342 144.699 19.2998 145.446 17.9105H145.552V19.8042H149.644V10.566C149.644 7.6902 147.038 5.82251 143.56 5.82251C139.886 5.82251 137.841 7.87602 137.494 10.3537L141.505 10.4953C141.692 9.62808 142.413 9.09715 143.56 9.09715C144.627 9.09715 145.303 9.61038 145.303 10.5218V10.566C145.303 11.3978 144.396 11.5748 142.066 11.7783C139.299 12.0084 136.987 13.026 136.987 16.0346C136.987 18.7246 138.863 20.0342 141.479 20.0342ZM142.822 17.2026C141.817 17.2026 141.105 16.7248 141.105 15.8222C141.105 14.9462 141.799 14.4153 143.035 14.2294C143.845 14.1144 144.841 13.9374 145.33 13.6808V14.9727C145.33 16.3 144.209 17.2026 142.822 17.2026Z" fill="#160242"/>
<path d="M151.31 24.901H155.66V17.6008H155.749C156.3 18.8573 157.528 19.9988 159.591 19.9988C162.616 19.9988 165.053 17.6451 165.053 13.0172C165.053 8.22113 162.473 6.03548 159.618 6.03548C157.457 6.03548 156.274 7.29201 155.749 8.53968H155.615V6.21246H151.31V24.901ZM155.571 13.0083C155.571 10.7873 156.496 9.41571 158.088 9.41571C159.698 9.41571 160.588 10.8227 160.588 13.0083C160.588 15.2028 159.698 16.6274 158.088 16.6274C156.496 16.6274 155.571 15.2116 155.571 13.0083Z" fill="#160242"/>
<path d="M166.387 19.8042H170.737V15.2913H172L174.998 19.8042H180.094L175.451 13.0172L180.05 6.21246L175.015 6.21246L171.698 11.2739H170.737V6.21246L166.387 6.21246V19.8042Z" fill="#160242"/>
<path d="M185.932 20.0608C189.517 20.0608 191.874 18.3353 192.372 15.6629L188.378 15.5479C188.04 16.4505 187.151 16.9372 186.012 16.9372C184.34 16.9372 183.308 15.8311 183.308 14.1675V14.0525L192.417 14.0525V12.9729C192.417 8.49544 189.677 6.03548 185.799 6.03548C181.672 6.03548 179.021 8.84939 179.021 13.0614C179.021 17.415 181.636 20.0608 185.932 20.0608ZM183.308 11.5394C183.371 10.1856 184.447 9.1591 185.888 9.1591C187.32 9.1591 188.352 10.1502 188.37 11.5394H183.308Z" fill="#160242"/>
<path d="M193.309 9.52189H195.983V19.9124L199.991 19.9124V9.52189H204V6.21246L191.279 6.21246L193.309 9.52189Z" fill="#160242"/>
<path d="M127.163 14.5167L123.946 6.16919L118.919 6.16919V19.6976H123.022V12.2569L125.756 19.6976H128.538L131.547 11.7914V19.6976L135.597 19.6976V6.16919L130.534 6.16919L127.163 14.5167Z" fill="#160242"/>
<path d="M48.167 10.7263C48.167 4.68829 44.2932 1.34375 39.3151 1.34375C34.3189 1.34375 30.4722 4.68829 30.4722 10.7263C30.4722 16.7376 34.3189 20.1089 39.3151 20.1089C44.2932 20.1089 48.167 16.7643 48.167 10.7263ZM43.5872 10.7263C43.5872 14.3027 41.9942 16.2381 39.3151 16.2381C36.645 16.2381 35.043 14.3027 35.043 10.7263C35.043 7.14988 36.645 5.2145 39.3151 5.2145C41.9942 5.2145 43.5872 7.14988 43.5872 10.7263Z" fill="#4E00F2"/>
<path d="M61.643 1.24854C60.9686 1.67078 59.8682 1.67078 58.3862 1.67078C58.0845 1.67078 57.765 1.67078 57.4367 1.67078C52.201 1.68837 49.4322 4.74963 49.4322 11.4351V12.4204C49.4322 17.3113 52.0235 19.9416 56.3097 19.9416C60.587 19.9416 63.1693 17.3113 63.1693 13.2209C63.1693 9.36791 60.8798 6.9664 57.3036 6.9664C55.014 6.9664 53.6208 7.96043 52.8399 9.59662H52.7245C53.0617 6.33304 54.3219 5.14548 57.5875 5.12789C60.4716 5.1015 61.6874 4.95195 62.8144 4.08987L61.643 1.24854ZM56.3363 16.6956C54.7922 16.6956 53.8604 15.4552 53.8604 13.388C53.8693 11.3032 54.7922 10.1244 56.3274 10.1244C57.8183 10.1244 58.75 11.3032 58.75 13.388C58.75 15.464 57.8271 16.6956 56.3363 16.6956Z" fill="#4E00F2"/>
<path d="M73.0637 15.0945L69.8513 6.17463H64.8108V19.6864H68.9195V12.2356L71.6705 19.6864H74.457L77.4564 11.7693V19.6864H81.5119V6.17463H76.4004L73.0637 15.0945Z" fill="#4E00F2"/>
<path d="M89.6983 19.9415C93.2746 19.9415 95.6262 18.2261 96.1231 15.5695L92.1387 15.4552C91.8014 16.3524 90.914 16.8363 89.7782 16.8363C88.1098 16.8363 87.0804 15.7367 87.0804 14.0829V13.9685H96.1675V12.8953C96.1675 8.44418 93.4343 5.99869 89.5652 5.99869C85.4476 5.99869 82.8031 8.79605 82.8031 12.9833C82.8031 17.3113 85.4121 19.9415 89.6983 19.9415ZM87.0804 11.4703C87.1426 10.1244 88.2163 9.10394 89.6539 9.10394C91.0827 9.10394 92.112 10.0892 92.1298 11.4703H87.0804Z" fill="#4E00F2"/>
<path d="M101.88 6.17463H97.7712V19.6864H101.88V14.5315H105.918V19.6864H110V6.17463H105.918V11.2503H101.88V6.17463Z" fill="#4E00F2"/>
<path d="M114.443 20.0171C115.689 20.0171 116.789 18.958 116.808 17.6432C116.789 16.3466 115.689 15.2966 114.443 15.2966C113.134 15.2966 112.061 16.3466 112.079 17.6432C112.061 18.958 113.134 20.0171 114.443 20.0171Z" fill="#160242"/>
<path d="M0 11.0529C0 12.1739 0.931722 13.0853 2.05402 13.0853C3.18691 13.0853 4.10805 12.1739 4.10805 11.0529V10.4347C4.10805 8.52799 5.34681 7.43842 7.48554 7.43842H15.2569V9.62804C15.2569 10.5395 15.8287 11.1262 16.7286 11.1262C17.1627 11.1262 17.4698 10.9795 17.7345 10.7595L22.6684 6.57933C23.3354 6.01359 23.3248 5.0707 22.6684 4.52591L17.7345 0.356206C17.4698 0.146673 17.1627 0 16.7286 0C15.8287 0 15.2569 0.576215 15.2569 1.48768V3.46777H7.61259C2.85869 3.46777 0 5.84597 0 9.79566V11.0529ZM8.61276 14.1959C8.61276 13.2844 8.04102 12.7082 7.14106 12.7082C6.70696 12.7082 6.38933 12.8548 6.13522 13.0644L1.19074 17.2446C0.523715 17.8103 0.544891 18.7532 1.19074 19.3085L6.13522 23.4677C6.38933 23.6877 6.70696 23.8344 7.14106 23.8344C8.04102 23.8344 8.61276 23.2582 8.61276 22.3362V20.398H16.2465C21.011 20.398 23.8697 18.0198 23.8697 14.0701V12.8234C23.8697 11.7024 22.938 10.7805 21.8051 10.7805C20.6722 10.7805 19.7617 11.7024 19.7617 12.8234V13.4311C19.7617 15.3378 18.5123 16.4379 16.3842 16.4379H8.61276V14.1959Z" fill="#4E00F2"/>
</svg>
