<svg width="231" height="42" viewBox="0 0 231 42" fill="none" xmlns="http://www.w3.org/2000/svg">
<path d="M166.799 29.0617C168.731 29.0617 170.066 28.3164 170.824 26.9067H170.933V28.8282H175.085V19.4544C175.085 16.5362 172.44 14.6411 168.911 14.6411C165.183 14.6411 163.108 16.7248 162.756 19.2389L166.826 19.3825C167.016 18.5026 167.747 17.9639 168.911 17.9639C169.994 17.9639 170.68 18.4846 170.68 19.4095V19.4544C170.68 20.2984 169.759 20.4779 167.395 20.6844C164.588 20.9179 162.241 21.9505 162.241 25.0032C162.241 27.7328 164.145 29.0617 166.799 29.0617ZM168.162 26.1884C167.142 26.1884 166.42 25.7036 166.42 24.7878C166.42 23.8989 167.124 23.3601 168.379 23.1716C169.2 23.0548 170.211 22.8753 170.707 22.6149V23.9258C170.707 25.2726 169.57 26.1884 168.162 26.1884Z" fill="#160242"/>
<path d="M176.775 34H181.189V26.5925H181.279C181.839 27.8675 183.084 29.0257 185.178 29.0257C188.247 29.0257 190.72 26.6374 190.72 21.9415C190.72 17.075 188.102 14.8572 185.205 14.8572C183.012 14.8572 181.811 16.1322 181.279 17.3982H181.144V15.0368L176.775 15.0368V34ZM181.098 21.9325C181.098 19.6788 182.037 18.2871 183.653 18.2871C185.286 18.2871 186.189 19.7147 186.189 21.9325C186.189 24.1592 185.286 25.6048 183.653 25.6048C182.037 25.6048 181.098 24.1682 181.098 21.9325Z" fill="#160242"/>
<path d="M192.074 28.8282H196.487V24.249H197.769L200.811 28.8282H205.982L201.271 21.9415L205.937 15.0368L200.829 15.0368L197.462 20.1727H196.487V15.0368H192.074V28.8282Z" fill="#160242"/>
<path d="M211.906 29.0886C215.543 29.0886 217.935 27.3377 218.441 24.6261L214.388 24.5094C214.045 25.4252 213.142 25.9191 211.987 25.9191C210.29 25.9191 209.243 24.7967 209.243 23.1087V22.992H218.486V21.8966C218.486 17.3533 215.706 14.8572 211.771 14.8572C207.583 14.8572 204.893 17.7125 204.893 21.9864C204.893 26.4039 207.547 29.0886 211.906 29.0886ZM209.243 20.442C209.307 19.0683 210.399 18.0267 211.861 18.0267C213.314 18.0267 214.361 19.0324 214.379 20.442H209.243Z" fill="#160242"/>
<path d="M219.391 18.3949H222.104V28.938L226.172 28.938V18.3949H230.239V15.0368L217.331 15.0368L219.391 18.3949Z" fill="#160242"/>
<path d="M152.272 23.4633L149.007 14.9932H143.906V28.7204H148.07V21.1703L150.844 28.7204H153.667L156.72 20.698V28.7204L160.83 28.7204V14.9932L155.692 14.9932L152.272 23.4633Z" fill="#160242"/>
<path d="M72.115 19.8972C72.115 13.5905 68.1843 10.0972 63.133 10.0972C58.0634 10.0972 54.1602 13.5905 54.1602 19.8972C54.1602 26.1759 58.0634 29.6972 63.133 29.6972C68.1843 29.6972 72.115 26.2038 72.115 19.8972ZM67.4679 19.8972C67.4679 23.6327 65.8515 25.6542 63.133 25.6542C60.4237 25.6542 58.7981 23.6327 58.7981 19.8972C58.7981 16.1616 60.4237 14.1401 63.133 14.1401C65.8515 14.1401 67.4679 16.1616 67.4679 19.8972Z" fill="#160242"/>
<path d="M85.7892 10C85.1049 10.4284 83.9883 10.4284 82.4846 10.4284C82.1784 10.4284 81.8543 10.4284 81.5211 10.4284C76.2084 10.4463 73.399 13.5525 73.399 20.3363V21.336C73.399 26.2988 76.0554 29.313 80.4045 29.313C84.7447 29.313 87.338 26.2988 87.338 22.1483C87.338 18.2387 85.0148 15.8019 81.386 15.8019C79.0629 15.8019 77.6492 16.8105 76.8568 18.4708H76.7397C77.0819 15.1592 78.3605 13.9542 81.6742 13.9364C84.6006 13.9096 85.8342 13.7578 86.9778 12.8831L85.7892 10ZM80.4045 25.674C78.8378 25.674 77.8923 24.4155 77.8923 22.3179C77.9013 20.2024 78.8378 19.0063 80.3955 19.0063C81.9083 19.0063 82.8538 20.2024 82.8538 22.3179C82.8538 24.4244 81.9173 25.674 80.4045 25.674Z" fill="#160242"/>
<path d="M97.3778 24.0494L94.1182 14.9985H89.0036V28.7088H93.1727V21.1485L95.9641 28.7088H98.7915L101.835 20.6754V28.7088H105.95V14.9985H100.763L97.3778 24.0494Z" fill="#160242"/>
<path d="M114.257 28.9676C117.886 28.9676 120.272 27.2271 120.776 24.5314L116.733 24.4154C116.391 25.3258 115.49 25.8168 114.338 25.8168C112.645 25.8168 111.6 24.701 111.6 23.0229V22.9069H120.821V21.8179C120.821 17.3014 118.048 14.82 114.122 14.82C109.944 14.82 107.26 17.6584 107.26 21.9072C107.26 26.2988 109.908 28.9676 114.257 28.9676ZM111.6 20.3719C111.663 19.0062 112.753 17.9708 114.212 17.9708C115.661 17.9708 116.706 18.9705 116.724 20.3719H111.6Z" fill="#160242"/>
<path d="M126.617 14.9985H122.448V28.7088H126.617V23.4782H130.714V28.7088H134.856V14.9985H130.714V20.1488H126.617V14.9985Z" fill="#160242"/>
<path d="M139.366 29.0442C140.63 29.0442 141.747 27.9695 141.765 26.6354C141.747 25.3198 140.63 24.2544 139.366 24.2544C138.038 24.2544 136.949 25.3198 136.967 26.6354C136.949 27.9695 138.038 29.0442 139.366 29.0442Z" fill="#160242"/>
<rect width="42" height="42" rx="21" fill="#7000FF"/>
<path d="M11 20.2747C11 21.2154 11.7807 21.9802 12.721 21.9802C13.6703 21.9802 14.4421 21.2154 14.4421 20.2747V19.756C14.4421 18.156 15.48 17.2418 17.272 17.2418H23.7835V19.0791C23.7835 19.844 24.2626 20.3363 25.0166 20.3363C25.3804 20.3363 25.6376 20.2132 25.8594 20.0286L29.9934 16.5209C30.5523 16.0462 30.5434 15.2549 29.9934 14.7978L25.8594 11.2989C25.6376 11.1231 25.3804 11 25.0166 11C24.2626 11 23.7835 11.4835 23.7835 12.2484V13.9099H17.3785C13.3952 13.9099 11 15.9055 11 19.2198V20.2747ZM18.2165 22.9121C18.2165 22.1473 17.7374 21.6637 16.9834 21.6637C16.6196 21.6637 16.3535 21.7868 16.1406 21.9626L11.9977 25.4703C11.4388 25.9451 11.4566 26.7363 11.9977 27.2022L16.1406 30.6923C16.3535 30.8769 16.6196 31 16.9834 31C17.7374 31 18.2165 30.5165 18.2165 29.7429V28.1165H24.6127C28.6048 28.1165 31 26.1209 31 22.8066V21.7604C31 20.8198 30.2193 20.0462 29.2701 20.0462C28.3209 20.0462 27.5579 20.8198 27.5579 21.7604V22.2703C27.5579 23.8703 26.5111 24.7934 24.728 24.7934H18.2165V22.9121Z" fill="white"/>
</svg>
