<svg width="40" height="40" viewBox="0 0 40 40" fill="none" xmlns="http://www.w3.org/2000/svg">
<path d="M20.0031 12.3C18.4796 12.3 16.9902 12.7518 15.7235 13.5982C14.4567 14.4446 13.4694 15.6477 12.8863 17.0552C12.3033 18.4628 12.1508 20.0116 12.448 21.5059C12.7452 23.0002 13.4789 24.3727 14.5562 25.45C15.6335 26.5273 17.006 27.261 18.5003 27.5582C19.9946 27.8554 21.5434 27.7029 22.951 27.1199C24.3585 26.5368 25.5616 25.5495 26.408 24.2827C27.2544 23.016 27.7062 21.5266 27.7062 20.0031C27.7062 17.9601 26.8946 16.0008 25.45 14.5562C24.0054 13.1116 22.0461 12.3 20.0031 12.3V12.3ZM20.0031 25.0021C19.0126 25.0033 18.0441 24.7106 17.22 24.1611C16.396 23.6116 15.7535 22.83 15.3739 21.9152C14.9943 21.0003 14.8947 19.9934 15.0876 19.022C15.2805 18.0505 15.7574 17.1581 16.4577 16.4577C17.1581 15.7574 18.0505 15.2805 19.022 15.0876C19.9934 14.8947 21.0003 14.9943 21.9152 15.3739C22.83 15.7535 23.6116 16.396 24.1611 17.22C24.7106 18.0441 25.0033 19.0126 25.0021 20.0031C25.0021 21.3289 24.4754 22.6004 23.5379 23.5379C22.6004 24.4754 21.3289 25.0021 20.0031 25.0021V25.0021ZM29.8088 11.9961C29.8075 12.3515 29.701 12.6987 29.5026 12.9936C29.3043 13.2886 29.0229 13.5182 28.6942 13.6534C28.3654 13.7886 28.0039 13.8233 27.6554 13.7532C27.307 13.6831 26.987 13.5113 26.7361 13.2595C26.4852 13.0077 26.3145 12.6872 26.2456 12.3385C26.1767 11.9898 26.2127 11.6284 26.349 11.3001C26.4853 10.9718 26.7159 10.6913 27.0115 10.4939C27.3072 10.2966 27.6547 10.1912 28.0101 10.1912C28.2469 10.1912 28.4812 10.238 28.6999 10.3287C28.9185 10.4195 29.1171 10.5526 29.2842 10.7202C29.4513 10.8879 29.5836 11.0869 29.6736 11.3059C29.7637 11.5248 29.8096 11.7594 29.8088 11.9961V11.9961ZM34.2123 10.1726C33.8392 9.17055 33.2482 8.26387 32.4819 7.51809C31.7275 6.75349 30.8152 6.16292 29.8088 5.78768C28.6497 5.35178 27.4248 5.11686 26.1867 5.09303C24.5865 5 24.0779 5 20.0031 5C15.9283 5 15.4197 5 13.8009 5.09303C12.5607 5.11616 11.3336 5.35109 10.1726 5.78768C9.17285 6.16532 8.26709 6.75575 7.51809 7.51809C6.75575 8.26709 6.16532 9.17285 5.78768 10.1726C5.3497 11.3376 5.11475 12.569 5.09303 13.8133C5 15.4197 5 15.9283 5 20.0031C5 24.0779 5 24.5865 5.09303 26.2053C5.11897 27.4371 5.35385 28.6556 5.78768 29.8088C6.16532 30.8085 6.75575 31.7143 7.51809 32.4633C8.26358 33.2344 9.16995 33.8316 10.1726 34.2123C11.3379 34.6498 12.5689 34.8868 13.8133 34.9132C15.4197 34.9876 15.9283 35 20.0155 35C24.1027 35 24.5989 35 26.2177 34.9132C27.4454 34.8813 28.6592 34.6444 29.8088 34.2123C30.8097 33.837 31.716 33.2463 32.4633 32.4819C33.2386 31.7326 33.8362 30.8192 34.2123 29.8088C34.6498 28.6435 34.8868 27.4125 34.9132 26.1681C34.9876 24.5679 35 24.0531 35 19.9659C35 15.8786 35 15.3825 34.9132 13.7637C34.8813 12.536 34.6444 11.3222 34.2123 10.1726V10.1726ZM32.209 26.0875C32.1896 27.0317 32.007 27.9654 31.6694 28.8474C31.42 29.4875 31.0404 30.0689 30.5547 30.5547C30.0689 31.0404 29.4875 31.42 28.8474 31.6694C27.9561 32.0014 27.0137 32.1756 26.0626 32.1842C24.4811 32.2586 24.0097 32.2772 20.0031 32.2772C15.9965 32.2772 15.5189 32.2772 13.9374 32.1842C12.9864 32.1742 12.0443 32 11.1526 31.6694C10.5011 31.429 9.91183 31.0454 9.42836 30.5468C8.92851 30.0645 8.54466 29.4749 8.30577 28.8226C7.98233 27.9461 7.80832 27.0216 7.79099 26.0875C7.71656 24.5059 7.70416 24.0345 7.70416 20.0279C7.70416 16.0213 7.70416 15.5437 7.79099 13.9622C7.80346 13.0114 7.97753 12.0697 8.30577 11.1774C8.54288 10.517 8.92671 9.91897 9.42836 9.42836C9.91183 8.92983 10.5011 8.5462 11.1526 8.30577C12.0452 7.97834 12.9867 7.80429 13.9374 7.79099C15.5189 7.71656 15.9965 7.70416 20.0031 7.70416C24.0097 7.70416 24.4811 7.70416 26.0626 7.79099C27.0134 7.80273 27.9553 7.97683 28.8474 8.30577C29.4997 8.54466 30.0893 8.92851 30.5716 9.42836C31.0612 9.91434 31.4362 10.5034 31.6694 11.1526C32.0008 12.0441 32.1749 12.9863 32.1842 13.9374C32.2896 15.5437 32.2896 15.9965 32.2896 20.0031C32.2896 24.0097 32.2896 24.4811 32.209 26.0875Z" fill="url(#paint0_linear)"/>
<defs>
<linearGradient id="paint0_linear" x1="7.51809" y1="32.4819" x2="32.4819" y2="7.51809" gradientUnits="userSpaceOnUse">
<stop stop-color="#FDD91D"/>
<stop offset="0.05" stop-color="#FDD91D"/>
<stop offset="0.5" stop-color="#EC1C24"/>
<stop offset="0.95" stop-color="#A43A94"/>
<stop offset="1" stop-color="#A43A94"/>
</linearGradient>
</defs>
</svg>
