<svg width="537" height="250" viewBox="0 0 537 250" fill="none" xmlns="http://www.w3.org/2000/svg">
<path d="M368.039 144.667C372.862 144.667 376.198 142.806 378.091 139.285H378.362V144.084H388.73V120.674C388.73 113.387 382.126 108.654 373.313 108.654C364.004 108.654 358.82 113.858 357.941 120.136L368.106 120.495C368.58 118.298 370.405 116.952 373.313 116.952C376.018 116.952 377.731 118.253 377.731 120.562V120.674C377.731 122.782 375.432 123.231 369.526 123.746C362.516 124.329 356.656 126.908 356.656 134.532C356.656 141.348 361.412 144.667 368.039 144.667ZM371.442 137.491C368.895 137.491 367.092 136.281 367.092 133.993C367.092 131.774 368.85 130.428 371.983 129.957C374.034 129.666 376.559 129.217 377.798 128.567V131.841C377.798 135.204 374.958 137.491 371.442 137.491Z" fill="white"/>
<path d="M392.952 156.999H403.974V138.5H404.199C405.597 141.684 408.707 144.577 413.937 144.577C421.6 144.577 427.776 138.613 427.776 126.885C427.776 114.732 421.239 109.194 414.004 109.194C408.527 109.194 405.529 112.378 404.199 115.54H403.861V109.642L392.952 109.642V156.999ZM403.749 126.863C403.749 121.235 406.093 117.759 410.127 117.759C414.207 117.759 416.461 121.325 416.461 126.863C416.461 132.424 414.207 136.034 410.127 136.034C406.093 136.034 403.749 132.446 403.749 126.863Z" fill="white"/>
<path d="M431.157 144.084H442.179V132.648H445.38L452.976 144.084H465.891L454.125 126.885L465.778 109.642H453.021L444.613 122.468H442.179V109.642H431.157V144.084Z" fill="white"/>
<path d="M480.684 144.734C489.768 144.734 495.741 140.362 497.003 133.59L486.883 133.298C486.026 135.586 483.772 136.819 480.887 136.819C476.65 136.819 474.035 134.016 474.035 129.8V129.509H497.116V126.773C497.116 115.427 490.173 109.194 480.346 109.194C469.888 109.194 463.171 116.324 463.171 126.998C463.171 138.03 469.798 144.734 480.684 144.734ZM474.035 123.141C474.193 119.71 476.92 117.109 480.572 117.109C484.2 117.109 486.815 119.621 486.86 123.141L474.035 123.141Z" fill="white"/>
<path d="M499.376 118.029H506.152V144.358H516.31V118.029H526.468V109.642H494.231L499.376 118.029Z" fill="white"/>
<path d="M331.764 130.685L323.611 109.533H310.872V143.814H321.269V124.959L328.197 143.814H335.248L342.872 123.779V143.814H353.134V109.533H340.305L331.764 130.685Z" fill="white"/>
<path d="M131.588 121.081C131.588 105.781 121.771 97.3057 109.157 97.3057C96.4963 97.3057 86.7488 105.781 86.7488 121.081C86.7488 136.314 96.4963 144.856 109.157 144.856C121.771 144.856 131.588 136.381 131.588 121.081ZM119.982 121.081C119.982 130.144 115.946 135.048 109.157 135.048C102.391 135.048 98.3312 130.144 98.3312 121.081C98.3312 112.018 102.391 107.114 109.157 107.114C115.946 107.114 119.982 112.018 119.982 121.081Z" fill="#854BFF"/>
<path d="M165.736 97.0645C164.027 98.1344 161.238 98.1344 157.483 98.1344C156.718 98.1344 155.909 98.1344 155.077 98.1344C141.81 98.179 134.794 105.936 134.794 122.877V125.374C134.794 137.768 141.36 144.432 152.221 144.432C163.06 144.432 169.603 137.768 169.603 127.402C169.603 117.639 163.802 111.554 154.74 111.554C148.938 111.554 145.407 114.072 143.429 118.218H143.136C143.991 109.949 147.184 106.939 155.459 106.895C162.767 106.828 165.848 106.449 168.704 104.264L165.736 97.0645ZM152.288 136.207C148.376 136.207 146.015 133.064 146.015 127.826C146.037 122.543 148.376 119.556 152.266 119.556C156.044 119.556 158.405 122.543 158.405 127.826C158.405 133.086 156.066 136.207 152.288 136.207Z" fill="#854BFF"/>
<path d="M194.676 132.15L186.535 109.547H173.763V143.786H184.174V124.906L191.145 143.786H198.206L205.807 123.724V143.786H216.083V109.547H203.131L194.676 132.15Z" fill="#854BFF"/>
<path d="M236.828 144.432C245.89 144.432 251.849 140.086 253.108 133.354L243.011 133.064C242.157 135.338 239.908 136.564 237.03 136.564C232.802 136.564 230.194 133.777 230.194 129.587V129.297H253.221V126.577C253.221 115.298 246.295 109.101 236.49 109.101C226.056 109.101 219.355 116.19 219.355 126.8C219.355 137.767 225.966 144.432 236.828 144.432ZM230.194 122.966C230.351 119.556 233.072 116.97 236.715 116.97C240.336 116.97 242.944 119.467 242.989 122.966H230.194Z" fill="#854BFF"/>
<path d="M267.696 109.547H257.284V143.786H267.696V130.723H277.927V143.786H288.271V109.547H277.927V122.409H267.696V109.547Z" fill="#854BFF"/>
<path d="M299.532 144.625C302.688 144.625 305.476 141.941 305.522 138.609C305.476 135.324 302.688 132.663 299.532 132.663C296.214 132.663 293.495 135.324 293.541 138.609C293.495 141.941 296.214 144.625 299.532 144.625Z" fill="white"/>
<path d="M9.53247 121.909C9.53247 124.749 11.8935 127.059 14.7374 127.059C17.6081 127.059 19.9422 124.749 19.9422 121.909V120.342C19.9422 115.511 23.0813 112.75 28.5008 112.75H48.1935V118.298C48.1935 120.608 49.6423 122.095 51.9228 122.095C53.0228 122.095 53.8008 121.723 54.4716 121.165L66.974 110.573C68.6643 109.139 68.6374 106.75 66.974 105.37L54.4716 94.8035C53.8008 94.2725 53.0228 93.9009 51.9228 93.9009C49.6423 93.9009 48.1935 95.361 48.1935 97.6707V102.688H28.8227C16.7764 102.688 9.53247 108.715 9.53247 118.723V121.909ZM31.3572 129.873C31.3572 127.563 29.9084 126.103 27.6279 126.103C26.5279 126.103 25.723 126.475 25.0791 127.006L12.5498 137.599C10.8596 139.032 10.9132 141.421 12.5498 142.828L25.0791 153.368C25.723 153.925 26.5279 154.297 27.6279 154.297C29.9084 154.297 31.3572 152.837 31.3572 150.501V145.589H50.7011C62.7743 145.589 70.0182 139.563 70.0182 129.555V126.395C70.0182 123.555 67.6572 121.219 64.7865 121.219C61.9157 121.219 59.6084 123.555 59.6084 126.395V127.935C59.6084 132.767 56.4426 135.554 51.0499 135.554H31.3572V129.873Z" fill="#854BFF" stroke="#5A5566" stroke-width="0.36"/>
</svg>
