<svg width="205" height="26" viewBox="0 0 205 26" fill="none" xmlns="http://www.w3.org/2000/svg">
<path d="M142.479 21.0342C144.382 21.0342 145.699 20.2998 146.446 18.9105H146.552V20.8042H150.644V11.566C150.644 8.6902 148.038 6.82251 144.56 6.82251C140.886 6.82251 138.841 8.87602 138.494 11.3537L142.505 11.4953C142.692 10.6281 143.413 10.0972 144.56 10.0972C145.627 10.0972 146.303 10.6104 146.303 11.5218V11.566C146.303 12.3978 145.396 12.5748 143.066 12.7783C140.299 13.0084 137.987 14.026 137.987 17.0346C137.987 19.7246 139.863 21.0342 142.479 21.0342ZM143.822 18.2026C142.817 18.2026 142.105 17.7248 142.105 16.8222C142.105 15.9462 142.799 15.4153 144.035 15.2294C144.845 15.1144 145.841 14.9374 146.33 14.6808V15.9727C146.33 17.3 145.209 18.2026 143.822 18.2026Z" fill="#160242"/>
<path d="M152.31 25.901H156.66V18.6008H156.749C157.3 19.8573 158.528 20.9988 160.591 20.9988C163.616 20.9988 166.053 18.6451 166.053 14.0172C166.053 9.22113 163.473 7.03548 160.618 7.03548C158.457 7.03548 157.274 8.29201 156.749 9.53968H156.615V7.21246H152.31V25.901ZM156.571 14.0083C156.571 11.7873 157.496 10.4157 159.088 10.4157C160.698 10.4157 161.588 11.8227 161.588 14.0083C161.588 16.2028 160.698 17.6274 159.088 17.6274C157.496 17.6274 156.571 16.2116 156.571 14.0083Z" fill="#160242"/>
<path d="M167.387 20.8042H171.737V16.2913H173L175.998 20.8042H181.094L176.451 14.0172L181.05 7.21246L176.015 7.21246L172.698 12.2739H171.737V7.21246L167.387 7.21246V20.8042Z" fill="#160242"/>
<path d="M186.932 21.0608C190.517 21.0608 192.874 19.3353 193.372 16.6629L189.378 16.5479C189.04 17.4505 188.151 17.9372 187.012 17.9372C185.34 17.9372 184.308 16.8311 184.308 15.1675V15.0525L193.417 15.0525V13.9729C193.417 9.49544 190.677 7.03548 186.799 7.03548C182.672 7.03548 180.021 9.84939 180.021 14.0614C180.021 18.415 182.636 21.0608 186.932 21.0608ZM184.308 12.5394C184.371 11.1856 185.447 10.1591 186.888 10.1591C188.32 10.1591 189.352 11.1502 189.37 12.5394H184.308Z" fill="#160242"/>
<path d="M194.309 10.5219H196.983V20.9124L200.991 20.9124V10.5219H205V7.21246L192.279 7.21246L194.309 10.5219Z" fill="#160242"/>
<path d="M128.163 15.5167L124.946 7.16919L119.919 7.16919V20.6976H124.022V13.2569L126.756 20.6976H129.538L132.547 12.7914V20.6976L136.597 20.6976V7.16919L131.534 7.16919L128.163 15.5167Z" fill="#160242"/>
<path d="M49.167 11.7263C49.167 5.68829 45.2932 2.34375 40.3151 2.34375C35.3189 2.34375 31.4722 5.68829 31.4722 11.7263C31.4722 17.7376 35.3189 21.1089 40.3151 21.1089C45.2932 21.1089 49.167 17.7643 49.167 11.7263ZM44.5872 11.7263C44.5872 15.3027 42.9942 17.2381 40.3151 17.2381C37.645 17.2381 36.043 15.3027 36.043 11.7263C36.043 8.14988 37.645 6.2145 40.3151 6.2145C42.9942 6.2145 44.5872 8.14988 44.5872 11.7263Z" fill="#4E00F2"/>
<path d="M62.643 2.24854C61.9686 2.67078 60.8682 2.67078 59.3862 2.67078C59.0845 2.67078 58.765 2.67078 58.4367 2.67078C53.201 2.68837 50.4322 5.74963 50.4322 12.4351V13.4204C50.4322 18.3113 53.0235 20.9416 57.3097 20.9416C61.587 20.9416 64.1693 18.3113 64.1693 14.2209C64.1693 10.3679 61.8798 7.9664 58.3036 7.9664C56.014 7.9664 54.6208 8.96043 53.8399 10.5966H53.7245C54.0617 7.33304 55.3219 6.14548 58.5875 6.12789C61.4716 6.1015 62.6874 5.95195 63.8144 5.08987L62.643 2.24854ZM57.3363 17.6956C55.7922 17.6956 54.8604 16.4552 54.8604 14.388C54.8693 12.3032 55.7922 11.1244 57.3274 11.1244C58.8183 11.1244 59.75 12.3032 59.75 14.388C59.75 16.464 58.8271 17.6956 57.3363 17.6956Z" fill="#4E00F2"/>
<path d="M74.0637 16.0945L70.8513 7.17463H65.8108V20.6864H69.9195V13.2356L72.6705 20.6864H75.457L78.4564 12.7693V20.6864H82.5119V7.17463H77.4004L74.0637 16.0945Z" fill="#4E00F2"/>
<path d="M90.6983 20.9415C94.2746 20.9415 96.6262 19.2261 97.1231 16.5695L93.1387 16.4552C92.8014 17.3524 91.914 17.8363 90.7782 17.8363C89.1098 17.8363 88.0804 16.7367 88.0804 15.0829V14.9685H97.1675V13.8953C97.1675 9.44418 94.4343 6.99869 90.5652 6.99869C86.4476 6.99869 83.8031 9.79605 83.8031 13.9833C83.8031 18.3113 86.4121 20.9415 90.6983 20.9415ZM88.0804 12.4703C88.1426 11.1244 89.2163 10.1039 90.6539 10.1039C92.0827 10.1039 93.112 11.0892 93.1298 12.4703H88.0804Z" fill="#4E00F2"/>
<path d="M102.88 7.17463H98.7712V20.6864H102.88V15.5315H106.918V20.6864H111V7.17463H106.918V12.2503H102.88V7.17463Z" fill="#4E00F2"/>
<path d="M115.443 21.0171C116.689 21.0171 117.789 19.958 117.808 18.6432C117.789 17.3466 116.689 16.2966 115.443 16.2966C114.134 16.2966 113.061 17.3466 113.079 18.6432C113.061 19.958 114.134 21.0171 115.443 21.0171Z" fill="#160242"/>
<path d="M1 12.0529C1 13.1739 1.93172 14.0853 3.05402 14.0853C4.18691 14.0853 5.10805 13.1739 5.10805 12.0529V11.4347C5.10805 9.52799 6.34681 8.43842 8.48554 8.43842H16.2569V10.628C16.2569 11.5395 16.8287 12.1262 17.7286 12.1262C18.1627 12.1262 18.4698 11.9795 18.7345 11.7595L23.6684 7.57933C24.3354 7.01359 24.3248 6.0707 23.6684 5.52591L18.7345 1.35621C18.4698 1.14667 18.1627 1 17.7286 1C16.8287 1 16.2569 1.57622 16.2569 2.48768V4.46777H8.61259C3.85869 4.46777 1 6.84597 1 10.7957V12.0529ZM9.61276 15.1959C9.61276 14.2844 9.04102 13.7082 8.14106 13.7082C7.70696 13.7082 7.38933 13.8548 7.13522 14.0644L2.19074 18.2446C1.52372 18.8103 1.54489 19.7532 2.19074 20.3085L7.13522 24.4677C7.38933 24.6877 7.70696 24.8344 8.14106 24.8344C9.04102 24.8344 9.61276 24.2582 9.61276 23.3362V21.398H17.2465C22.011 21.398 24.8697 19.0198 24.8697 15.0701V13.8234C24.8697 12.7024 23.938 11.7805 22.8051 11.7805C21.6722 11.7805 20.7617 12.7024 20.7617 13.8234V14.4311C20.7617 16.3378 19.5123 17.4379 17.3842 17.4379H9.61276V15.1959Z" fill="#4E00F2" stroke="#4E00F2" stroke-width="0.36"/>
</svg>
