<svg width="24" height="24" viewBox="0 0 24 24" fill="none" xmlns="http://www.w3.org/2000/svg">
<path d="M21.1453 7.65257C21.1594 7.85533 21.1594 8.0581 21.1594 8.26273C21.1594 14.4979 16.4127 21.689 7.73311 21.689V21.6852C5.16915 21.689 2.65844 20.9545 0.5 19.5698C0.872821 19.6146 1.24751 19.6371 1.62314 19.638C3.74794 19.6399 5.812 18.9269 7.48363 17.6141C5.46441 17.5758 3.69374 16.2592 3.07518 14.3372C3.78251 14.4736 4.51133 14.4456 5.20559 14.2559C3.00416 13.8111 1.42037 11.8769 1.42037 9.63067C1.42037 9.61012 1.42037 9.5905 1.42037 9.57087C2.07632 9.93622 2.81075 10.139 3.56199 10.1614C1.48858 8.77571 0.849462 6.01739 2.10154 3.86082C4.49732 6.80882 8.03211 8.60098 11.8267 8.79066C11.4464 7.15174 11.9659 5.43433 13.1918 4.28223C15.0924 2.49567 18.0815 2.58724 19.868 4.48686C20.9248 4.27849 21.9377 3.89072 22.8646 3.3413C22.5124 4.4336 21.7751 5.36145 20.7903 5.95105C21.7256 5.84079 22.6394 5.59037 23.5 5.20821C22.8665 6.15755 22.0685 6.98448 21.1453 7.65257Z" fill="#1D9BF0"/>
</svg>
