<svg width="231" height="42" viewBox="0 0 231 42" fill="none" xmlns="http://www.w3.org/2000/svg">
<path d="M166.799 29.0619C168.731 29.0619 170.066 28.3167 170.825 26.907H170.933V28.8285H175.085V19.4546C175.085 16.5365 172.44 14.6414 168.911 14.6414C165.184 14.6414 163.108 16.725 162.756 19.2391L166.826 19.3828C167.016 18.5028 167.747 17.9641 168.911 17.9641C169.994 17.9641 170.68 18.4849 170.68 19.4097V19.4546C170.68 20.2986 169.76 20.4782 167.395 20.6847C164.588 20.9181 162.241 21.9507 162.241 25.0035C162.241 27.733 164.146 29.0619 166.799 29.0619ZM168.162 26.1887C167.142 26.1887 166.42 25.7038 166.42 24.788C166.42 23.8991 167.124 23.3604 168.379 23.1718C169.2 23.0551 170.211 22.8755 170.707 22.6151V23.926C170.707 25.2729 169.57 26.1887 168.162 26.1887Z" fill="#160242"/>
<path d="M176.775 34.0002H181.189V26.5927H181.279C181.839 27.8677 183.084 29.026 185.178 29.026C188.247 29.026 190.72 26.6376 190.72 21.9417C190.72 17.0752 188.102 14.8575 185.205 14.8575C183.012 14.8575 181.812 16.1324 181.279 17.3985H181.144V15.037L176.775 15.037V34.0002ZM181.099 21.9327C181.099 19.6791 182.037 18.2874 183.653 18.2874C185.286 18.2874 186.189 19.715 186.189 21.9327C186.189 24.1595 185.286 25.6051 183.653 25.6051C182.037 25.6051 181.099 24.1685 181.099 21.9327Z" fill="#160242"/>
<path d="M192.074 28.8285H196.487V24.2493H197.769L200.811 28.8285H205.982L201.271 21.9417L205.937 15.037L200.829 15.037L197.462 20.1729H196.487V15.037H192.074V28.8285Z" fill="#160242"/>
<path d="M211.906 29.0888C215.543 29.0888 217.935 27.338 218.441 24.6264L214.388 24.5097C214.045 25.4255 213.143 25.9193 211.987 25.9193C210.291 25.9193 209.244 24.797 209.244 23.109V22.9922H218.486V21.8968C218.486 17.3536 215.706 14.8575 211.771 14.8575C207.583 14.8575 204.893 17.7127 204.893 21.9866C204.893 26.4042 207.547 29.0888 211.906 29.0888ZM209.244 20.4423C209.307 19.0685 210.399 18.027 211.861 18.027C213.314 18.027 214.361 19.0326 214.379 20.4423H209.244Z" fill="#160242"/>
<path d="M219.391 18.3951H222.104V28.9383L226.172 28.9383V18.3951H230.239V15.037L217.331 15.037L219.391 18.3951Z" fill="#160242"/>
<path d="M152.272 23.4633L149.007 14.9932H143.906V28.7204H148.07V21.1703L150.844 28.7204H153.667L156.72 20.698V28.7204L160.83 28.7204V14.9932L155.692 14.9932L152.272 23.4633Z" fill="#160242"/>
<path d="M72.115 19.6176C72.115 13.4909 68.1843 10.0972 63.133 10.0972C58.0634 10.0972 54.1602 13.4909 54.1602 19.6176C54.1602 25.7172 58.0634 29.138 63.133 29.138C68.1843 29.138 72.115 25.7443 72.115 19.6176ZM67.4679 19.6176C67.4679 23.2466 65.8515 25.2104 63.133 25.2104C60.4237 25.2104 58.7981 23.2466 58.7981 19.6176C58.7981 15.9886 60.4237 14.0248 63.133 14.0248C65.8515 14.0248 67.4679 15.9886 67.4679 19.6176Z" fill="#160242"/>
<path d="M85.7895 10C85.1051 10.4284 83.9886 10.4284 82.4848 10.4284C82.1787 10.4284 81.8545 10.4284 81.5214 10.4284C76.2087 10.4463 73.3993 13.5525 73.3993 20.3363V21.336C73.3993 26.2988 76.0286 28.9677 80.3778 28.9677C84.7179 28.9677 87.3383 26.2988 87.3383 22.1483C87.3383 18.2387 85.0151 15.8019 81.3863 15.8019C79.0631 15.8019 77.6494 16.8105 76.857 18.4708H76.74C77.0821 15.1592 78.3608 13.9542 81.6744 13.9364C84.6009 13.9096 85.8345 13.7578 86.9781 12.8831L85.7895 10ZM80.4048 25.674C78.838 25.674 77.8925 24.4155 77.8925 22.3179C77.9015 20.2024 78.838 19.0063 80.3958 19.0063C81.9085 19.0063 82.854 20.2024 82.854 22.3179C82.854 24.4244 81.9175 25.674 80.4048 25.674Z" fill="#160242"/>
<path d="M97.378 24.0494L94.1184 14.9985H89.0039V28.7088H93.1729V21.1485L95.9643 28.7088H98.7918L101.835 20.6754V28.7088H105.95V14.9985H100.764L97.378 24.0494Z" fill="#160242"/>
<path d="M114.257 28.9676C117.886 28.9676 120.272 27.2271 120.776 24.5314L116.733 24.4154C116.391 25.3258 115.491 25.8168 114.338 25.8168C112.645 25.8168 111.601 24.701 111.601 23.0229V22.9069H120.821V21.8179C120.821 17.3014 118.048 14.82 114.122 14.82C109.944 14.82 107.261 17.6584 107.261 21.9072C107.261 26.2988 109.908 28.9676 114.257 28.9676ZM111.601 20.3719C111.664 19.0062 112.753 17.9708 114.212 17.9708C115.662 17.9708 116.706 18.9705 116.724 20.3719H111.601Z" fill="#160242"/>
<path d="M126.618 14.9985H122.449V28.7088H126.618V23.4782H130.715V28.7088H134.857V14.9985H130.715V20.1488H126.618V14.9985Z" fill="#160242"/>
<path d="M139.366 29.0442C140.63 29.0442 141.746 27.9695 141.765 26.6354C141.746 25.3198 140.63 24.2544 139.366 24.2544C138.037 24.2544 136.949 25.3198 136.967 26.6354C136.949 27.9695 138.037 29.0442 139.366 29.0442Z" fill="#160242"/>
<rect width="42" height="42" rx="21" fill="#4E00F2"/>
<path d="M11 20.2747C11 21.2154 11.7807 21.9802 12.721 21.9802C13.6703 21.9802 14.4421 21.2154 14.4421 20.2747V19.756C14.4421 18.156 15.48 17.2418 17.272 17.2418H23.7835V19.0791C23.7835 19.844 24.2626 20.3363 25.0166 20.3363C25.3804 20.3363 25.6376 20.2132 25.8594 20.0286L29.9934 16.5209C30.5523 16.0462 30.5434 15.2549 29.9934 14.7978L25.8594 11.2989C25.6376 11.1231 25.3804 11 25.0166 11C24.2626 11 23.7835 11.4835 23.7835 12.2484V13.9099H17.3785C13.3952 13.9099 11 15.9055 11 19.2198V20.2747ZM18.2165 22.9121C18.2165 22.1473 17.7374 21.6637 16.9834 21.6637C16.6196 21.6637 16.3535 21.7868 16.1406 21.9626L11.9977 25.4703C11.4388 25.9451 11.4566 26.7363 11.9977 27.2022L16.1406 30.6923C16.3535 30.8769 16.6196 31 16.9834 31C17.7374 31 18.2165 30.5165 18.2165 29.7429V28.1165H24.6127C28.6048 28.1165 31 26.1209 31 22.8066V21.7604C31 20.8198 30.2193 20.0462 29.2701 20.0462C28.3209 20.0462 27.5579 20.8198 27.5579 21.7604V22.2703C27.5579 23.8703 26.5111 24.7934 24.728 24.7934H18.2165V22.9121Z" fill="white"/>
</svg>
