<svg width="18" height="16" viewBox="0 0 18 16" fill="none" xmlns="http://www.w3.org/2000/svg">
<path d="M0 7.41014C0 8.11797 0.574233 8.69309 1.28834 8.69309C1.99509 8.69309 2.56196 8.11797 2.56196 7.41014V6.96037C2.56196 5.66267 3.41595 4.88848 4.83681 4.88848H10.2699V6.42949C10.2699 7.01935 10.638 7.38802 11.2123 7.38802C11.4847 7.38802 11.6908 7.29217 11.8601 7.15207L15.1436 4.36498C15.5779 3.99631 15.5706 3.38433 15.1436 3.02304L11.8601 0.235945C11.6908 0.0958525 11.4847 0 11.2123 0C10.638 0 10.2699 0.368664 10.2699 0.958525V2.38157H4.93988C1.86258 2.38157 0 3.97419 0 6.5917V7.41014ZM7.7227 9.57051C7.7227 8.98065 7.36196 8.61198 6.78773 8.61198C6.51534 8.61198 6.30184 8.70783 6.13252 8.84793L2.85644 11.635C2.42209 12.0037 2.42945 12.6157 2.85644 12.977L6.13252 15.7641C6.30184 15.9041 6.51534 16 6.78773 16C7.36196 16 7.7227 15.6313 7.7227 15.0415V13.6406H13.0528C16.1301 13.6406 18 12.0479 18 9.42304V8.61198C18 7.90415 17.4184 7.32166 16.7117 7.32166C16.0049 7.32166 15.4307 7.90415 15.4307 8.61198V9.05438C15.4307 10.3594 14.584 11.1263 13.1632 11.1263H7.7227V9.57051Z" fill="#4E00F2"/>
</svg>
