<svg width="18" height="18" viewBox="0 0 18 18" fill="none" xmlns="http://www.w3.org/2000/svg">
<path d="M0 8.88356C0 9.68312 0.661276 10.3332 1.45781 10.3332C2.26187 10.3332 2.91563 9.68312 2.91563 8.88356V8.44268C2.91563 7.08269 3.79482 6.30555 5.31275 6.30555L11.7398 6.30547V7.86722C11.7398 8.51733 12.1456 8.93579 12.7844 8.93579C13.0925 8.93579 13.3104 8.83117 13.4982 8.67425L17 5.69272C17.4734 5.28921 17.4659 4.61669 17 4.22812L13.4982 1.25406C13.3104 1.10461 13.0925 1 12.7844 1C12.1456 1 11.7398 1.41099 11.7398 2.06109V3.47339L5.40293 3.47348C2.02892 3.47348 0 5.16973 0 7.98686V8.88356ZM5.79708 11.1253C5.79708 10.4752 5.39129 10.0642 4.75256 10.0642C4.44447 10.0642 4.21903 10.1688 4.03868 10.3183L0.529412 13.2998C0.0559981 13.7033 0.0710272 14.3758 0.529412 14.7719L4.03868 17.7385C4.21903 17.8954 4.44447 18 4.75256 18C5.39129 18 5.79708 17.589 5.79708 16.9314V15.549H12.119C15.5005 15.549 17.5294 13.8528 17.5294 11.0356V10.1464C17.5294 9.34686 16.8681 8.68928 16.0641 8.68928C15.26 8.68928 14.6138 9.34686 14.6138 10.1464V10.5798C14.6138 11.9398 13.7271 12.7244 12.2167 12.7244H5.79708V11.1253Z" fill="#4E00F2"/>
</svg>
