<svg width="17" height="22" viewBox="0 0 17 22" fill="none" xmlns="http://www.w3.org/2000/svg">
<path d="M8.52269 8.15646C9.13081 8.15646 9.60278 7.65136 9.60278 7.06207V4.10629L9.51201 2.74065L9.98398 3.47959L11.055 4.65816C11.2365 4.85459 11.4816 4.96684 11.7539 4.96684C12.2349 4.96684 12.6887 4.59269 12.6887 4.05017C12.6887 3.76956 12.5798 3.56378 12.3983 3.3767L9.38494 0.392857C9.10358 0.102891 8.82221 0 8.52269 0C8.23225 0 7.95088 0.102891 7.66951 0.392857L4.65617 3.3767C4.47464 3.56378 4.36572 3.76956 4.36572 4.05017C4.36572 4.59269 4.81046 4.96684 5.29151 4.96684C5.5638 4.96684 5.81794 4.85459 5.99947 4.65816L7.07048 3.47959L7.54245 2.74065L7.44261 4.10629V7.06207C7.44261 7.65136 7.92365 8.15646 8.52269 8.15646ZM3.24026 22H13.7688C15.8564 22 17 20.8121 17 18.6794V10.0646C17 7.92262 15.8564 6.74405 13.7688 6.74405H9.88414V13.301C9.88414 14.0587 9.26695 14.6854 8.52269 14.6854C7.78751 14.6854 7.17031 14.0587 7.17031 13.301V6.74405H3.24026C1.1527 6.74405 0 7.92262 0 10.0646V18.6794C0 20.8214 1.1527 22 3.24026 22Z" fill="#4E00F2"/>
</svg>
