<svg width="24" height="25" viewBox="0 0 24 25" fill="none" xmlns="http://www.w3.org/2000/svg">
<path d="M12.0056 24.0111C18.6025 24.0111 24 18.6136 24 12.0056C24 5.3975 18.6025 0 11.9944 0C5.3975 0 0 5.3975 0 12.0056C0 18.6136 5.3975 24.0111 12.0056 24.0111ZM10.5285 18.1805C9.96205 18.1805 9.4956 17.9028 9.15132 17.503L5.97501 13.8047C5.65294 13.4493 5.54188 13.1384 5.54188 12.7608C5.54188 11.95 6.21934 11.317 7.01897 11.317C7.47432 11.317 7.8186 11.5169 8.12957 11.8612L10.5174 14.6266L15.0375 7.49653C15.3929 6.94123 15.8038 6.66358 16.348 6.66358C17.1254 6.66358 17.8362 7.2522 17.8362 8.05183C17.8362 8.35169 17.7251 8.68487 17.5252 9.01805L11.9056 17.4142C11.5835 17.8806 11.0727 18.1805 10.5285 18.1805Z" fill="white"/>
</svg>
