<svg width="16" height="17" viewBox="0 0 16 17" fill="none" xmlns="http://www.w3.org/2000/svg">
<path d="M8 9.16502C8.81116 9.16502 9.34698 8.57644 9.34698 7.69739V1.46763C9.34698 0.580935 8.81116 0 8 0C7.18884 0 6.65302 0.580935 6.65302 1.46763V7.69739C6.65302 8.57644 7.18884 9.16502 8 9.16502ZM8 17C12.3981 17 16 13.3004 16 8.78282C16 6.60432 15.1591 4.61691 13.8716 3.24865C12.7033 1.95683 10.813 3.4321 12.0781 4.88444C13.0009 5.90108 13.574 7.26933 13.574 8.78282C13.574 11.9474 11.0809 14.5081 8 14.5081C4.91907 14.5081 2.42605 11.9474 2.42605 8.78282C2.42605 7.26933 2.99907 5.90108 3.92186 4.88444C5.18698 3.4321 3.29674 1.95683 2.12837 3.24865C0.84093 4.61691 0 6.60432 0 8.78282C0 13.3004 3.60186 17 8 17Z" fill="#4E00F2"/>
</svg>
