<svg width="52" height="52" viewBox="0 0 52 52" fill="none" xmlns="http://www.w3.org/2000/svg">
<path d="M26 4.33331C14.0338 4.33331 4.33331 14.0338 4.33331 26C4.33331 37.9661 14.0338 47.6666 26 47.6666C37.9661 47.6666 47.6666 37.9661 47.6666 26C47.6666 14.0338 37.9661 4.33331 26 4.33331Z" fill="#7000FF"/>
<path d="M26 15.1667C24.8034 15.1667 23.8333 16.1367 23.8333 17.3334C23.8333 18.53 24.8034 19.5 26 19.5C27.1966 19.5 28.1666 18.53 28.1666 17.3334C28.1666 16.1367 27.1966 15.1667 26 15.1667Z" fill="white"/>
<path d="M28.1666 26C28.1666 24.8034 27.1966 23.8334 26 23.8334C24.8034 23.8334 23.8333 24.8034 23.8333 26V34.6667C23.8333 35.8633 24.8034 36.8334 26 36.8334C27.1966 36.8334 28.1666 35.8633 28.1666 34.6667V26Z" fill="white"/>
</svg>
