<svg width="52" height="52" viewBox="0 0 52 52" fill="none" xmlns="http://www.w3.org/2000/svg">
<rect x="4" y="4" width="44" height="44" rx="22" fill="#7000FF"/>
<path d="M16 25.2747C16 26.2154 16.7807 26.9802 17.721 26.9802C18.6703 26.9802 19.4421 26.2154 19.4421 25.2747V24.756C19.4421 23.156 20.48 22.2418 22.272 22.2418H28.7835V24.0791C28.7835 24.844 29.2626 25.3363 30.0166 25.3363C30.3804 25.3363 30.6376 25.2132 30.8594 25.0286L34.9934 21.5209C35.5523 21.0462 35.5434 20.2549 34.9934 19.7978L30.8594 16.2989C30.6376 16.1231 30.3804 16 30.0166 16C29.2626 16 28.7835 16.4835 28.7835 17.2484V18.9099H22.3785C18.3952 18.9099 16 20.9055 16 24.2198V25.2747ZM23.2165 27.9121C23.2165 27.1473 22.7374 26.6637 21.9834 26.6637C21.6196 26.6637 21.3535 26.7868 21.1406 26.9626L16.9977 30.4703C16.4388 30.9451 16.4566 31.7363 16.9977 32.2022L21.1406 35.6923C21.3535 35.8769 21.6196 36 21.9834 36C22.7374 36 23.2165 35.5165 23.2165 34.7429V33.1165H29.6127C33.6048 33.1165 36 31.1209 36 27.8066V26.7604C36 25.8198 35.2193 25.0462 34.2701 25.0462C33.3209 25.0462 32.5579 25.8198 32.5579 26.7604V27.2703C32.5579 28.8703 31.5111 29.7934 29.728 29.7934H23.2165V27.9121Z" fill="white"/>
</svg>
