<svg width="52" height="52" viewBox="0 0 52 52" fill="none" xmlns="http://www.w3.org/2000/svg">
<path d="M26 4.33337C14.0338 4.33337 4.33334 14.0339 4.33334 26C4.33334 37.9662 14.0338 47.6667 26 47.6667C37.9662 47.6667 47.6667 37.9662 47.6667 26C47.6667 14.0339 37.9662 4.33337 26 4.33337Z" fill="#33C74C"/>
<path fill-rule="evenodd" clip-rule="evenodd" d="M34.0321 20.1346C34.8782 20.9807 34.8782 22.3526 34.0321 23.1987L25.3654 31.8654C24.5193 32.7115 23.1474 32.7115 22.3013 31.8654L17.9679 27.5321C17.1218 26.6859 17.1218 25.3141 17.9679 24.4679C18.8141 23.6218 20.1859 23.6218 21.0321 24.4679L23.8333 27.2692L30.9679 20.1346C31.8141 19.2885 33.1859 19.2885 34.0321 20.1346Z" fill="white"/>
</svg>
