<svg xmlns="http://www.w3.org/2000/svg" shape-rendering="geometricPrecision" fill="none" viewBox="0 0 296 120">
  <g filter="url(#filter0_d)">
    <path fill="#160242" fill-rule="evenodd" d="M118.615 44c-.684.428-1.8.428-3.304.428h-.962c-5.311.018-8.119 3.125-8.119 9.908v1c0 4.963 2.655 7.977 7.002 7.977 4.339 0 6.931-3.014 6.931-7.165 0-3.91-2.322-6.346-5.949-6.346-2.322 0-3.736 1.008-4.527 2.669h-.117c.342-3.312 1.619-4.517 4.932-4.535 2.925-.026 4.158-.178 5.301-1.053L118.615 44zm-5.383 15.674c-1.565 0-2.511-1.258-2.511-3.356.009-2.116.946-3.312 2.502-3.312 1.513 0 2.458 1.196 2.458 3.312 0 2.106-.936 3.356-2.449 3.356zm16.967-1.625l-3.259-9.05h-5.113v13.71h4.168v-7.56l2.79 7.56h2.826l3.043-8.034v8.034h4.113v-13.71h-5.185l-3.383 9.05zm23.387.482c-.504 2.696-2.89 4.437-6.516 4.437-4.348 0-6.994-2.67-6.994-7.06 0-4.25 2.683-7.088 6.859-7.088 3.924 0 6.696 2.481 6.696 6.998v1.089h-9.217v.116c0 1.678 1.045 2.794 2.737 2.794 1.151 0 2.052-.491 2.394-1.402l4.041.116zm-6.561-6.56c-1.458 0-2.548 1.035-2.611 2.4h5.122c-.018-1.4-1.063-2.4-2.511-2.4zm12.399-2.972h-4.167v13.71h4.167v-5.23h4.096v5.23h4.14v-13.71h-4.14v5.15h-4.096v-5.15zm-63.455-4.902c5.049 0 8.978 3.493 8.978 9.8s-3.929 9.8-8.978 9.8c-5.068 0-8.969-3.521-8.969-9.8 0-6.306 3.901-9.8 8.969-9.8zm0 15.557c2.718 0 4.333-2.021 4.333-5.757 0-3.735-1.616-5.757-4.333-5.757-2.709 0-4.333 2.022-4.333 5.757 0 3.736 1.625 5.757 4.333 5.757zm107.644 1.253c-.759 1.41-2.093 2.155-4.025 2.155-2.651 0-4.556-1.33-4.556-4.059 0-3.052 2.346-4.085 5.152-4.318 2.364-.207 3.284-.387 3.284-1.23v-.045c0-.925-.686-1.446-1.768-1.446-1.164 0-1.895.539-2.085 1.419l-4.068-.144c.352-2.514 2.427-4.598 6.153-4.598 3.527 0 6.171 1.895 6.171 4.814v9.373h-4.15v-1.921h-.108zm-4.403-2.12c0 .917.721 1.402 1.741 1.402 1.407 0 2.544-.916 2.544-2.263v-1.311c-.496.26-1.507.44-2.327.557-1.255.188-1.958.727-1.958 1.616v-.001zM213.972 68h-4.412V49.037h4.367v2.361h.135c.533-1.266 1.732-2.54 3.924-2.54 2.896 0 5.513 2.217 5.513 7.084 0 4.696-2.472 7.084-5.54 7.084-2.093 0-3.337-1.158-3.897-2.433h-.09V68zm2.463-15.713c-1.615 0-2.553 1.392-2.553 3.646 0 2.235.938 3.672 2.553 3.672 1.632 0 2.535-1.446 2.535-3.672 0-2.218-.903-3.646-2.535-3.646zm8.417 10.541h4.411V58.25h1.282l3.04 4.58h5.169l-4.709-6.887 4.664-6.905h-5.106l-3.365 5.136h-.975v-5.136h-4.411v13.791-.001zm26.355-4.202c-.505 2.712-2.896 4.463-6.532 4.463-4.357 0-7.01-2.685-7.01-7.102 0-4.274 2.689-7.13 6.875-7.13 3.934 0 6.712 2.496 6.712 7.04v1.095h-9.238v.117c0 1.688 1.047 2.81 2.742 2.81 1.156 0 2.057-.494 2.4-1.41l4.051.117zm-6.577-6.6c-1.461 0-2.553 1.042-2.616 2.416h5.133c-.018-1.41-1.064-2.415-2.517-2.415v-.001zm7.527.369h2.712v10.543h4.066V52.395H263v-3.358h-12.902l2.059 3.358zm-67.089 5.068l-3.264-8.47h-5.098V62.72h4.162v-7.55l2.773 7.55h2.821l3.052-8.022v8.022h4.108V48.993h-5.136l-3.418 8.47zm-10.502 3.172c-.018 1.334-1.135 2.41-2.398 2.41-1.328 0-2.416-1.076-2.397-2.41-.019-1.315 1.069-2.38 2.397-2.38 1.263 0 2.38 1.065 2.398 2.38z" clip-rule="evenodd"/>
    <path fill="#7000FF" d="M75 55c0-11.598-9.402-21-21-21s-21 9.402-21 21 9.402 21 21 21 21-9.402 21-21z"/>
    <path fill="#fff" d="M44 54.275c0 .94.78 1.705 1.721 1.705.95 0 1.721-.765 1.721-1.705v-.519c0-1.6 1.038-2.514 2.83-2.514h6.511v1.837c0 .765.48 1.257 1.234 1.257.363 0 .62-.123.842-.307l4.134-3.508c.56-.475.55-1.266 0-1.723l-4.134-3.5a1.286 1.286 0 00-.842-.298c-.754 0-1.234.483-1.234 1.248v1.662H50.38c-3.984 0-6.379 1.996-6.379 5.31v1.055H44zm7.217 2.637c0-.765-.48-1.248-1.234-1.248-.363 0-.63.123-.842.299l-4.143 3.507c-.56.475-.541 1.266 0 1.732l4.143 3.49c.212.185.479.308.842.308.754 0 1.234-.484 1.234-1.257v-1.627h6.396c3.992 0 6.387-1.995 6.387-5.31V55.76c0-.94-.78-1.714-1.73-1.714s-1.712.774-1.712 1.714v.51c0 1.6-1.047 2.523-2.83 2.523h-6.511V56.912z"/>
  </g>
  <defs>
    <filter id="filter0_d" width="294" height="106" x="1" y="14" color-interpolation-filters="sRGB" filterUnits="userSpaceOnUse">
      <feFlood flood-opacity="0" result="BackgroundImageFix"/>
      <feColorMatrix in="SourceAlpha" values="0 0 0 0 0 0 0 0 0 0 0 0 0 0 0 0 0 0 127 0"/>
      <feOffset dy="12"/>
      <feGaussianBlur stdDeviation="16"/>
      <feColorMatrix values="0 0 0 0 0.101961 0 0 0 0 0.101961 0 0 0 0 0.101961 0 0 0 0.24 0"/>
      <feBlend in2="BackgroundImageFix" result="effect1_dropShadow"/>
      <feBlend in="SourceGraphic" in2="effect1_dropShadow" result="shape"/>
    </filter>
  </defs>
</svg>
