<svg id="Layer_1" data-name="Layer_1" xmlns="http://www.w3.org/2000/svg" viewBox="0 0 360 360"><defs><style>.cls-1{fill:#7000ff;}.cls-2{fill:#fff;}</style></defs><title>OMLogo_L</title><path class="cls-1" d="M180,0h0A180,180,0,0,1,360,180h0A180,180,0,0,1,180,360h0A180,180,0,0,1,0,180H0A180,180,0,0,1,180,0Z"/><path class="cls-2" d="M94.29,173.76a14.8,14.8,0,0,0,29.6,0V169.3c0-13.76,8.92-21.62,24.34-21.62h56v15.8c0,6.58,4.12,10.81,10.61,10.81a10.76,10.76,0,0,0,7.25-2.64l35.55-30.17a9.46,9.46,0,0,0,0-14.82L222.08,96.57A11.08,11.08,0,0,0,214.83,94c-6.49,0-10.61,4.16-10.61,10.74V119H149.14c-34.25,0-54.85,17.16-54.85,45.66Zm62.06,22.68c0-6.57-4.12-10.73-10.61-10.73a11,11,0,0,0-7.25,2.57l-35.62,30.17a9.58,9.58,0,0,0,0,14.89l35.62,30a10.6,10.6,0,0,0,7.25,2.65c6.49,0,10.61-4.16,10.61-10.81v-14h55c34.34,0,54.94-17.16,54.94-45.66v-9a14.81,14.81,0,0,0-29.61,0v4.39c0,13.75-9,21.69-24.33,21.69h-56Z"/></svg>